<?xml version="1.0" encoding="utf-8"?>
<!-- Generator: Adobe Illustrator 25.1.0, SVG Export Plug-In . SVG Version: 6.00 Build 0)  -->
<svg version="1.1" id="Layer_1" xmlns="http://www.w3.org/2000/svg" xmlns:xlink="http://www.w3.org/1999/xlink" x="0px" y="0px"
	 viewBox="0 0 100 125" style="enable-background:new 0 0 100 125;" xml:space="preserve">
<g>
	<path d="M54.83,63.08c0.29-0.32,0.26-0.82-0.06-1.1c-0.32-0.29-0.82-0.26-1.1,0.06c-0.01,0.01-1.21,1.3-2.55,1.3
		c-1.35,0-2.53-1.29-2.55-1.31c-0.29-0.32-0.78-0.35-1.1-0.06c-0.32,0.29-0.35,0.78-0.06,1.1c0.07,0.08,1.66,1.82,3.71,1.82
		C53.17,64.9,54.76,63.15,54.83,63.08z"/>
	<path d="M60.25,73.27l-0.19-0.06c-0.87-0.28-1.62-0.51-2.51-2.99c2.83-2.38,5.43-5.7,7.18-9c2.07-0.24,4.06-3.56,5.11-6.82
		c1.16-3.6,1.34-7.57-0.39-8.74c1.45-2.07,2.94-5.19,3.4-9.6c0.4-3.82-1.05-10.03-5.19-14.63c-3.21-3.56-7.45-5.44-12.28-5.44
		c-5.47,0-11.68,2.36-18.46,7.03c-0.1,0-0.21,0.01-0.33,0.01L35.24,23c-2.12,0-4.77,0.3-6.46,2.67c-2.44,3.42-1.96,10.02,1.48,20.15
		c-1.5,1.35-1.29,5.12-0.17,8.57c1.05,3.26,3.04,6.58,5.11,6.82c1.75,3.31,4.36,6.64,7.2,9.02c-0.89,2.46-1.64,2.7-2.5,2.97
		l-0.19,0.06c-14.36,4.66-22.94,16.33-22.94,31.19v0.78h66.4v-0.78C83.18,89.6,74.61,77.94,60.25,73.27z M65.4,77.13L53.1,98.65
		v-11.7c0-0.08-0.01-0.16-0.03-0.23c0.67-0.59,1.17-1.36,1.42-2.23l1.37,1.53l7.04-10.08C63.76,76.3,64.59,76.7,65.4,77.13z
		 M49.98,86.32c-1.72,0-3.13-1.4-3.13-3.13c0-0.07-0.01-0.15-0.03-0.21l1.86-2.08c0.07-0.08,0.12-0.17,0.16-0.27h2.28
		c0.03,0.1,0.08,0.19,0.16,0.27l1.86,2.08c-0.02,0.07-0.03,0.14-0.03,0.22C53.1,84.92,51.7,86.32,49.98,86.32z M60.3,74.94
		c0.37,0.13,0.74,0.26,1.1,0.4l-5.7,8.17l-3.18-3.54L60.3,74.94z M30.06,26.58c1.26-1.78,3.33-2.02,5.18-2.02l1.36,0.02
		c0.26,0,0.49-0.01,0.69-0.03c0.13-0.02,0.25-0.06,0.36-0.13c6.58-4.56,12.55-6.87,17.74-6.87c4.37,0,8.22,1.7,11.12,4.92
		c3.65,4.05,5.17,9.82,4.79,13.42c-0.66,6.24-3.57,9.69-5.04,11.07c-2.04-6.42-7.95-10.42-9.26-10.42c-0.43,0-0.88,0.41-0.88,0.85
		c0,0.49,0.79,3.26,1.54,5.76c-4.54-2.75-14.6-6.55-18.88-6.55c-0.87,0-1.53,0.14-1.99,0.44c-0.2,0.13-0.34,0.34-0.36,0.58
		c-0.56,5.44-3.42,7.12-4.71,7.6C28.53,35.78,27.97,29.51,30.06,26.58z M36.38,60.08c-0.16-0.31-0.5-0.48-0.84-0.42
		c-0.69,0.15-2.65-1.73-3.95-5.75c-1.32-4.08-0.8-6.72-0.16-7c0.76-0.15,5.57-1.4,6.5-8.68c0.18-0.04,0.46-0.08,0.85-0.08
		c5.01,0,18.1,5.56,19.71,7.54c0.16,0.19,0.43,0.29,0.62,0.29c0.46-0.02,0.8-0.35,0.8-0.78c0-0.16-0.05-0.3-0.12-0.42
		c-0.69-2.27-1.4-4.69-1.79-6.13c1.97,1.27,5.88,4.68,7.06,9.86c0.06,0.25,0.23,0.45,0.47,0.55c0.1,0.04,0.19,0.06,0.29,0.06
		c0.15,0,0.3-0.04,0.43-0.12c0.09-0.06,1.06-0.7,2.24-2.08c0.65,0.22,1.2,2.88-0.14,7.01c-1.3,4.02-3.26,5.88-3.95,5.75
		c-0.34-0.07-0.69,0.1-0.84,0.42c-3.36,6.65-9.46,12.05-13.59,12.05C45.83,72.13,39.74,66.72,36.38,60.08z M43.7,71.25
		c2.1,1.51,4.27,2.45,6.27,2.45c2.01,0,4.19-0.94,6.29-2.47c0.7,1.78,1.43,2.57,2.23,3.02l-7.46,4.82H48.2l-6.78-4.79
		C42.24,73.83,42.98,73.05,43.7,71.25z M39.65,74.94l7.51,5.31l-2.92,3.25l-5.7-8.17C38.91,75.2,39.28,75.07,39.65,74.94z
		 M37.06,75.94l7.04,10.08l1.37-1.53c0.25,0.88,0.75,1.65,1.42,2.23c-0.02,0.07-0.03,0.15-0.03,0.23v11.7l-12.3-21.52
		C35.36,76.7,36.2,76.3,37.06,75.94z M18.35,103.68c0.24-11.19,5.63-20.39,14.84-25.8l13.69,23.95c0.03,0.14,0.11,0.27,0.21,0.37
		l0.84,1.48H18.35z M51.54,101.38l-1.31,2.3h-0.5l-1.31-2.3V87.62c0.49,0.17,1.02,0.27,1.56,0.27s1.07-0.1,1.56-0.27V101.38z
		 M52.03,103.68l0.84-1.48c0.1-0.1,0.17-0.23,0.21-0.37l13.69-23.95c9.2,5.4,14.6,14.61,14.84,25.8H52.03z"/>
</g>
</svg>
