<?xml version="1.0" encoding="utf-8"?>
<!-- Generator: Adobe Illustrator 25.1.0, SVG Export Plug-In . SVG Version: 6.00 Build 0)  -->
<svg version="1.1" id="Isolation_Mode" xmlns="http://www.w3.org/2000/svg" xmlns:xlink="http://www.w3.org/1999/xlink" x="0px"
	 y="0px" viewBox="0 0 430 217" style="enable-background:new 0 0 430 217;" xml:space="preserve">
<style type="text/css">
	.st0{fill-rule:evenodd;clip-rule:evenodd;fill:#1A325E;}
	.st1{fill-rule:evenodd;clip-rule:evenodd;fill:#FFFFFF;}
	.st2{fill-rule:evenodd;clip-rule:evenodd;fill:#33AD4A;}
	.st3{fill-rule:evenodd;clip-rule:evenodd;fill:#B3CAE2;}
	.st4{fill:#33AD4A;}
	.st5{fill:#1A325E;}
</style>
<g>
	<g id="Shape_2_copy_2">
		<g>
			<path class="st0" d="M137.21,66.56c-12.43-21.63-23.2-40.36-23.2-40.36L76.44,85.97l51.14,66.4l33.33,6.31l9.07-3.36l4.34-24.19
				C174.32,131.12,154.21,96.13,137.21,66.56z"/>
		</g>
	</g>
	<g id="Shape_2_copy_9">
		<g>
			<polygon class="st1" points="173.82,125.61 92.15,13.47 58.96,94.51 131.56,154.87 166.14,155.77 174.57,151.12 			"/>
		</g>
	</g>
	<g id="Shape_2_copy_9_2_">
		<g>
			<polygon class="st0" points="167.86,128.58 94.24,27.51 64.33,100.55 129.76,154.96 160.94,155.77 168.53,151.58 			"/>
		</g>
	</g>
	<g id="Shape_2_copy_8">
		<g>
			<path class="st1" d="M172.86,123.9c0,0-17.79-26.39-44.62-49.66c-26.86-23.29-62.74-43.46-62.74-43.46l-21.23,70.24l91.36,60.88
				l34.23-6.42l7.03-6.12L172.86,123.9z"/>
		</g>
	</g>
	<g id="Shape_2">
		<g>
			<path class="st2" d="M171.98,124.81c0,0-22.19-28.41-50.95-51.7C96.48,53.23,64.71,37.94,64.71,37.94l-21.33,63.98l91.36,60.87
				l34.23-6.42l7.03-6.12L171.98,124.81z"/>
		</g>
	</g>
	<g id="Shape_2_copy_7">
		<g>
			<path class="st1" d="M168.41,116.52c0,0-24.6-19.62-58.5-36.25C75.42,63.37,31.64,49.46,31.64,49.46l-10.86,97.06l118.6,40.03
				c0,0,30.9-11.12,37.8-34.46C183.8,129.68,168.41,116.52,168.41,116.52z"/>
		</g>
	</g>
	<g id="Shape_2_copy_3">
		<g>
			<path class="st0" d="M100.68,80.67C79.56,71.06,55.23,63.2,41.31,59.02c-8.13-2.44-11.93,1.82-12.84,10.2
				c-1.84,16.77-4.97,45.34-6.89,62.92c-0.71,6.53,3.43,14.6,9.25,14.3c26.12-1.35,51.88,2.06,101.4,32.06
				c5.63,3.41,8.97,5.66,8.97,5.66l24.2-66.81C165.4,117.34,136.42,96.92,100.68,80.67z"/>
		</g>
	</g>
</g>
<g id="Shape_19_copy_2">
	<g>
		<path class="st1" d="M139.88,52.9c4.54,6.6,8.94,12.36,8.94,12.36s216.26,46.2-105.64,80.17
			C330.98,146.62,264.3,69.62,139.88,52.9z"/>
	</g>
</g>
<g id="Shape_19">
	<g>
		<path class="st3" d="M141.87,56.09c3.18,5.94,7.8,12.77,7.8,12.77s151.3,49.7-122.34,78.12
			C304.79,137.14,242.89,71.26,141.87,56.09z"/>
	</g>
</g>
<g id="Shape_19_copy_4">
	<g>
		<path class="st1" d="M140.06,56.33c3.08,5.76,7.57,12.39,7.57,12.39s146.79,50.46-118.69,78.03
			C298.13,137.2,238.07,71.05,140.06,56.33z"/>
	</g>
</g>
<g id="Shape_19_copy_4_2_">
	<g>
		<path class="st1" d="M131.9,52.9c3.2,5.66,7.82,12.15,7.82,12.15s147.75,45.87-117.09,81.7C291.54,128.82,230.18,64.56,131.9,52.9
			z"/>
	</g>
</g>
<g id="Shape_19_copy_5">
	<g>
		<path class="st0" d="M137.99,54.13c2.95,5.7,7.22,12.23,7.22,12.23s138.41,45.78-115.23,80.17
			C291.62,128.99,223.06,67.48,137.99,54.13z"/>
	</g>
</g>
<g>
	<path class="st4" d="M237.42,99.27c1.87,1.95,4.77,3.58,8.42,3.58c3.1,0,4.61-1.47,4.61-2.98c0-1.99-2.3-2.66-5.36-3.38
		c-4.33-0.99-9.89-2.19-9.89-8.11c0-4.41,3.81-7.99,10.05-7.99c4.21,0,7.71,1.27,10.33,3.7l-3.14,4.13c-2.15-1.99-5.01-2.9-7.59-2.9
		c-2.54,0-3.89,1.11-3.89,2.7c0,1.79,2.22,2.34,5.28,3.06c4.37,0.99,9.93,2.3,9.93,8.19c0,4.85-3.46,8.5-10.61,8.5
		c-5.09,0-8.74-1.71-11.24-4.21L237.42,99.27z"/>
	<path class="st4" d="M272.54,80.36c8.03,0,13.87,5.72,13.87,13.71s-5.84,13.71-13.87,13.71c-7.99,0-13.83-5.72-13.83-13.71
		S264.55,80.36,272.54,80.36z M272.54,85.37c-4.89,0-8.03,3.73-8.03,8.7c0,4.93,3.14,8.7,8.03,8.7c4.89,0,8.07-3.77,8.07-8.7
		C280.61,89.1,277.43,85.37,272.54,85.37z"/>
	<path class="st4" d="M290.38,80.8h5.64v21.54h11.21v4.97h-16.85V80.8z"/>
	<path class="st4" d="M304.77,80.8h6.44l7.35,20.38l7.31-20.38h6.44l-10.21,26.5h-7.07L304.77,80.8z"/>
	<path class="st4" d="M334.77,80.8h18.75v4.85h-13.11v5.76h12.83v4.85h-12.83v6.16h13.11v4.89h-18.75V80.8z"/>
	<path class="st4" d="M368.11,80.8h5.64v26.5h-5.64V80.8z"/>
	<path class="st4" d="M385.12,85.76h-7.75V80.8h21.14v4.97h-7.71v21.54h-5.68V85.76z"/>
	<path class="st5" d="M236.14,128.48h13.95c5.05,0,7.63,3.22,7.63,6.75c0,3.34-2.07,5.56-4.57,6.08c2.82,0.44,5.09,3.18,5.09,6.52
		c0,3.97-2.66,7.15-7.71,7.15h-14.38V128.48z M248.86,139.13c1.91,0,3.1-1.23,3.1-2.94c0-1.63-1.19-2.9-3.1-2.9h-7.07v5.84H248.86z
		 M249.06,150.18c2.15,0,3.42-1.23,3.42-3.14c0-1.67-1.19-3.1-3.42-3.1h-7.27v6.24H249.06z"/>
	<path class="st5" d="M275.05,128.04c8.03,0,13.87,5.72,13.87,13.71c0,7.99-5.84,13.71-13.87,13.71c-7.99,0-13.83-5.72-13.83-13.71
		C261.22,133.77,267.06,128.04,275.05,128.04z M275.05,133.05c-4.89,0-8.03,3.73-8.03,8.7c0,4.93,3.14,8.7,8.03,8.7
		c4.89,0,8.07-3.77,8.07-8.7C283.11,136.78,279.93,133.05,275.05,133.05z"/>
	<path class="st5" d="M305.45,128.04c8.03,0,13.87,5.72,13.87,13.71c0,7.99-5.84,13.71-13.87,13.71c-7.99,0-13.83-5.72-13.83-13.71
		C291.62,133.77,297.46,128.04,305.45,128.04z M305.45,133.05c-4.89,0-8.03,3.73-8.03,8.7c0,4.93,3.14,8.7,8.03,8.7
		c4.89,0,8.07-3.77,8.07-8.7C313.51,136.78,310.33,133.05,305.45,133.05z"/>
	<path class="st5" d="M331,144.37l-2.07,2.46v8.15h-5.64v-26.5h5.64v11.84l9.38-11.84h6.95l-10.53,12.44l11.25,14.07h-6.95
		L331,144.37z"/>
</g>
</svg>
